<?xml version="1.0" encoding="UTF-8" standalone="no"?>
<!-- Created with Inkscape (http://www.inkscape.org/) -->

<svg
   width="119.0625mm"
   height="135.46666mm"
   viewBox="0 0 119.0625 135.46666"
   version="1.1"
   id="svg5"
   inkscape:version="1.1.2 (0a00cf5339, 2022-02-04)"
   sodipodi:docname="jmeLogo.svg"
   xmlns:inkscape="http://www.inkscape.org/namespaces/inkscape"
   xmlns:sodipodi="http://sodipodi.sourceforge.net/DTD/sodipodi-0.dtd"
   xmlns="http://www.w3.org/2000/svg"
   xmlns:svg="http://www.w3.org/2000/svg">
  <sodipodi:namedview
     id="namedview7"
     pagecolor="#ffffff"
     bordercolor="#666666"
     borderopacity="1.0"
     inkscape:pageshadow="2"
     inkscape:pageopacity="0.0"
     inkscape:pagecheckerboard="0"
     inkscape:document-units="mm"
     showgrid="false"
     inkscape:zoom="0.52007512"
     inkscape:cx="273.99888"
     inkscape:cy="469.16299"
     inkscape:window-width="1920"
     inkscape:window-height="1011"
     inkscape:window-x="0"
     inkscape:window-y="32"
     inkscape:window-maximized="1"
     inkscape:current-layer="layer1" />
  <defs
     id="defs2" />
  <g
     inkscape:label="Шар 1"
     inkscape:groupmode="layer"
     id="layer1"
     transform="translate(-5.9526899,-34.890513)">
    <path
       style="fill:#000000;stroke-width:0.429608"
       d="m 47.12128,169.53995 c -11.508349,-2.97269 -21.080895,-12.37571 -26.074464,-25.61267 -0.561672,-1.48886 -1.021211,-2.8583 -1.021211,-3.04321 0,-0.18489 1.778695,0.11127 3.952672,0.65809 20.99388,5.28082 44.85672,1.47521 62.314861,-9.93789 3.665668,-2.39639 4.252307,-2.66063 4.081334,-1.83835 -0.109724,0.52818 -0.407961,2.25854 -0.66257,3.84524 -2.431592,15.1543 -11.760241,28.73466 -23.386556,34.04545 -6.004881,2.74295 -13.159781,3.44464 -19.204066,1.88334 z m -1.720354,-30.70521 c -5.531037,-1.01185 -10.110063,-2.14953 -12.257577,-3.04544 -1.419288,-0.5921 -2.629419,-1.12113 -2.689174,-1.17561 -0.05983,-0.0545 0.306787,-1.2411 0.81454,-2.63694 0.774292,-2.12863 0.93761,-3.6105 1.012743,-9.18935 0.09689,-7.19597 0.81584,-11.98322 2.5742,-17.14144 5.577137,-16.360711 18.701482,-25.777412 31.421783,-22.545081 5.826755,1.480625 11.819803,5.836259 15.865439,11.530704 5.157571,7.259547 7.987404,16.877547 7.987404,27.147447 v 4.84815 l -3.118154,2.19571 c -3.566657,2.51153 -10.320667,5.85314 -14.728052,7.28686 -6.597243,2.14607 -9.570432,2.607 -17.851261,2.76749 -4.376173,0.0848 -8.440522,0.0657 -9.031891,-0.0425 z M 71.550083,97.612917 c 0.153613,-2.644192 -0.707775,-4.949482 -2.218371,-5.937042 -1.29105,-0.844029 -3.13992,-0.70206 -2.923334,0.22447 0.434117,1.857119 1.821708,7.147726 2.002257,7.634219 0.129717,0.349453 0.741797,0.512616 1.60998,0.429128 1.363257,-0.131084 1.404204,-0.19402 1.529468,-2.350775 z m -22.967168,1.191418 c 0.865826,-0.954574 2.409176,-4.837042 2.409176,-6.060528 0,-1.917712 -3.532992,-0.04865 -4.564606,2.414811 -1.369857,3.271175 0.155401,5.850872 2.15543,3.645717 z m 59.172175,20.914105 c -6.19991,-10.99826 -7.55927,-13.14621 -7.793442,-12.31443 -0.156052,0.55413 -0.325547,4.19378 -0.376768,8.08811 -0.0512,3.89432 -0.215676,8.31189 -0.365453,9.81681 l -0.272293,2.73622 -4.630864,-13.24982 c -2.54699,-7.28741 -4.627548,-13.39465 -4.623467,-13.57167 0.0032,-0.17701 1.70088,-0.32858 3.770678,-0.33682 7.589049,-0.0302 11.795349,-1.326758 17.204809,-5.303279 1.4791,-1.087291 2.78484,-1.976896 2.90164,-1.976896 0.11687,0 2.94213,5.45527 6.27852,12.122825 5.22854,10.44888 5.86719,11.93835 4.62497,10.78686 -7.69295,-7.13107 -14.74046,-13.43089 -14.87487,-13.29676 -0.0909,0.0906 1.19855,6.78588 2.86533,14.87831 1.66678,8.09243 2.97887,14.76503 2.91576,14.82801 -0.0631,0.063 -3.49416,-5.88039 -7.62455,-13.20747 z m -85.776353,-1.48273 c 0.117038,-3.51514 0.296676,-7.9843 0.399182,-9.93146 0.102573,-1.94716 0.128255,-3.54029 0.05722,-3.54029 -0.07104,0 -2.898398,4.15362 -6.282977,9.23026 -3.384597,5.07666 -6.2110001,9.17322 -6.2809145,9.10346 -0.069898,-0.0697 1.4823595,-4.75442 3.4494875,-10.41037 1.967128,-5.65595 3.7191,-10.76632 3.893276,-11.35636 0.213027,-0.72168 -1.682268,0.8936 -5.790424,4.93494 -4.4644734,4.39186 -5.9064876,5.6038 -5.3612336,4.50584 0.9628545,-1.93886 8.8530836,-16.463087 9.0757976,-16.706609 0.09314,-0.101871 0.795522,0.410129 1.56076,1.137791 3.351533,3.186921 8.157581,5.288438 13.489929,5.898648 l 2.636604,0.30173 -5.329941,11.41248 c -2.931478,6.27686 -5.419851,11.50217 -5.529737,11.61179 -0.109886,0.10963 -0.104035,-2.67669 0.013,-6.19185 z M 87.415019,97.361522 C 87.093455,96.830477 86.169678,95.251932 85.362176,93.853644 83.534243,90.688368 78.58679,85.700476 75.403598,83.813657 74.081321,83.029888 71.579912,81.875027 69.84491,81.2473 c -2.783115,-1.006941 -3.787518,-1.141321 -8.530656,-1.141321 -4.74314,0 -5.747543,0.134374 -8.530674,1.141321 -1.734985,0.627727 -4.227958,1.782588 -5.539913,2.566357 -3.304051,1.973871 -8.213109,6.94728 -10.014464,10.145737 -2.553508,4.534005 -1.950547,4.197557 -6.073122,3.388791 C 20.713662,95.29959 12.073508,87.224034 9.4948533,77.102415 c -0.8365178,-3.283492 -0.8365178,-10.053677 0,-13.337169 2.3463167,-9.209622 9.9253037,-16.955617 19.3476007,-19.773888 3.544126,-1.060074 11.078931,-1.060074 14.623058,0 5.996607,1.793629 12.265654,6.306384 15.342667,11.044381 l 1.358574,2.091946 1.148866,-2.71701 c 5.215049,-12.333394 18.009344,-20.319224 31.171824,-19.456552 13.015357,0.853032 24.093937,9.401143 28.463627,21.962221 1.091,3.136161 1.19474,3.971056 1.19976,9.655348 0.005,5.88223 -0.0678,6.427834 -1.33489,9.982003 -0.73721,2.067818 -1.99169,4.860986 -2.78774,6.207036 -1.93158,3.266133 -7.69013,9.029059 -10.99773,11.006088 -4.73313,2.829119 -10.988416,4.549651 -16.567699,4.556998 -2.096276,0.0026 -2.550176,-0.140553 -3.047752,-0.962295 z M 42.640357,84.705748 C 49.39227,81.253221 53.095358,74.156877 51.854633,67.048129 50.862048,61.360997 47.451638,56.971403 42.037445,54.412246 c -2.583321,-1.221069 -3.26803,-1.356509 -6.794389,-1.343955 -3.648876,0.01297 -4.147851,0.125552 -7.175918,1.618751 -3.732397,1.840515 -6.260644,4.37773 -7.994198,8.02251 -0.999055,2.100524 -1.122401,2.879538 -1.121035,7.080589 0.0013,4.348339 0.09802,4.906418 1.226094,7.080587 1.479889,2.852255 4.608138,6.188757 6.920579,7.381296 3.482453,1.795928 4.653995,2.050255 8.840355,1.919139 3.586162,-0.112317 4.405742,-0.291539 6.701424,-1.465415 z M 30.519391,83.979987 c -3.886221,-1.279779 -7.638042,-4.625363 -9.357325,-8.344113 -1.406886,-3.043052 -1.312881,-8.879838 0.194383,-12.068068 1.348675,-2.852828 4.101897,-5.679778 7.036284,-7.22475 1.931057,-1.016711 2.64379,-1.142594 6.470972,-1.142888 4.083301,-3.12e-4 4.438578,0.07413 7.021654,1.471506 2.986552,1.615613 5.140958,3.845412 6.631657,6.863703 0.811793,1.643671 0.968998,2.662488 0.96513,6.254764 -0.0049,3.854053 -0.126142,4.522294 -1.197436,6.558835 -2.655234,5.047691 -7.125039,7.880338 -12.767345,8.091056 -1.89731,0.07086 -3.96327,-0.119307 -4.997974,-0.460045 z M 29.07754,69.14645 c 0.678548,0 1.350187,-1.769345 1.079746,-2.844468 -0.637877,-2.535753 -4.540516,-1.947501 -4.540516,0.684396 0,1.355439 1.488294,2.769875 2.504937,2.380627 0.316833,-0.121303 0.746951,-0.220555 0.955833,-0.220555 z M 96.112424,85.498508 C 104.83763,82.789003 110.62785,74.1528 109.7816,65.110743 108.50396,51.459415 93.710985,43.232306 81.545658,49.407335 74.268079,53.101382 70.432054,59.831397 70.865,68.14575 c 0.256136,4.918498 1.832712,8.507629 5.356016,12.193188 2.428536,2.540361 6.924708,5.191596 9.608372,5.665732 2.86961,0.506987 7.802352,0.264184 10.283036,-0.506162 z M 86.303622,83.93125 C 78.995109,82.3494 73.257629,75.826367 72.632674,68.38854 71.493856,54.835188 85.264627,45.192731 97.668047,50.85848 c 3.329203,1.520739 6.819453,4.965458 8.497333,8.386451 1.30282,2.656315 1.38357,3.096396 1.38357,7.541324 0,4.444927 -0.0808,4.885009 -1.38357,7.541323 -2.52085,5.139693 -7.636953,8.925271 -13.316596,9.853373 -3.038958,0.496594 -3.109588,0.4939 -6.545162,-0.249701 z M 81.958578,61.851299 c 0.473095,-0.47204 0.860185,-1.147912 0.860185,-1.501944 0,-0.911581 -1.565003,-2.360195 -2.549818,-2.360195 -1.131748,0 -2.181179,1.135575 -2.181179,2.360195 0,2.168511 2.305972,3.063275 3.870812,1.501944 z"
       id="path854"
       sodipodi:nodetypes="ssscsccsssscsssssscssssscssssccsscscsscscsssssssssccsssssssscscssccsssssssssscssscssscssscssssssscsssssscsscsccssscssssssssssssssscsssssss" />
  </g>
</svg>
